# xmcd
#
# Track frame offsets: 
#        150
#        25271
#        43527
#        63730
#        83037
#        99979
#        116740
#        136241
#        157073
#        176326
#        191095
#        212852
#        231229
#        253786
#        270941
#        294275
#        313019
#
# Disc length: 4436 seconds
#
# Revision: 26
# Processed by: cddbd v1.5.2PL0 Copyright (c) Steve Scherf et al.
# Submitted via: ExactAudioCopyFreeDBPlugin 1.0
#
DISCID=f0115211
DTITLE=TINA TURNER - ALL THE BEST (2-CD)
DYEAR=2004
DGENRE=Pop Rock
TTITLE0=In Your Wildest Dreams
TTITLE1=Private Dancer
TTITLE2=Why Must We Wait Until Tonight
TTITLE3=Typical Male
TTITLE4=Tonight - David Bowie With Tina Turner
TTITLE5=Complicated Disaster
TTITLE6=On Silent Wings
TTITLE7=Something Special
TTITLE8=We Don't Need Another Hero (Thunderdome)
TTITLE9=It's Only Love - Bryan Adams With Tina Turner
TTITLE10=Cose Della Vita - Eros Ramazzotti With Tina Turner
TTITLE11=Steamy Windows
TTITLE12=Paradise Is Here
TTITLE13=What's Love Got To Do With It
TTITLE14=Better Be Good To Me
TTITLE15=Two People
TTITLE16=Something Beautiful Remains
EXTD=
EXTT0=
EXTT1=
EXTT2=
EXTT3=
EXTT4=
EXTT5=
EXTT6=
EXTT7=
EXTT8=
EXTT9=
EXTT10=
EXTT11=
EXTT12=
EXTT13=
EXTT14=
EXTT15=
EXTT16=
PLAYORDER=
